<svg width="44" height="32" viewBox="0 0 44 32" fill="none" xmlns="http://www.w3.org/2000/svg">
<g clip-path="url(#clip0_2201_2)">
<path d="M37.1472 7.38666C36.8798 7.42009 36.5878 7.7814 36.3631 7.93119C35.5057 8.50283 34.9143 9.64605 34.2939 10.4252C32.4601 12.728 30.3709 14.8469 28.1079 16.7309C26.2224 18.3007 24.0504 19.4777 21.9438 20.7169C19.9573 21.8854 18.0879 22.9442 15.845 23.5049C12.7665 24.2746 9.75069 24.8731 6.57699 24.4197C1.91751 23.7541 1.92198 18.3956 1.62172 14.7923C1.47407 13.0206 1.72718 10.9081 2.73257 9.39055C3.79298 7.78993 5.65529 7.58269 7.44825 7.58269C11.451 7.58269 15.8929 9.71011 19.4063 11.3727C21.8932 12.5495 24.25 13.9089 26.5506 15.4131C28.5258 16.7046 30.3999 18.1497 32.5949 19.0615C34.8786 20.0101 36.9269 21.2929 39.1294 22.3941C40.0534 22.8561 41.1256 23.3231 41.852 24.0495" stroke="black" stroke-width="2.37103" stroke-linecap="round"/>
<path d="M5.2771 20.0132C5.6703 20.0132 6.28151 19.1398 6.55095 18.8319C6.82167 18.5225 6.97099 18.0544 7.19332 17.705C7.42608 17.3393 7.53816 16.9049 7.77036 16.54C7.92567 16.296 8.17045 15.9319 8.2222 15.6473C8.24737 15.5088 8.34968 15.2034 8.46173 15.1138C8.56819 15.0286 8.48049 14.8388 8.5325 14.7218C8.60128 14.5671 8.60871 14.4619 8.60871 14.2918C8.60871 13.9669 8.60871 14.9414 8.60871 15.2662C8.60871 16.54 8.60871 17.8139 8.60871 19.0877C8.60871 19.7 9.25782 20.511 9.92611 19.9642C10.8057 19.2445 10.8038 18.5406 11.1074 17.5689C11.3266 16.8675 11.1868 16.1498 11.4994 15.4622C11.6243 15.1874 11.6464 14.7833 11.6464 14.4768C11.6464 14.1336 11.8016 14.6074 11.8206 14.7C11.8899 15.0391 11.9403 15.3557 11.9403 15.7017C11.9403 16.894 11.6843 18.8697 13.0182 19.5015C13.4392 19.7009 13.5827 19.5881 13.9491 19.4253C14.1932 19.3168 14.7887 18.636 14.9235 18.3855C15.2158 17.8428 15.4553 17.1654 15.7074 16.589C15.8595 16.2414 15.7822 15.5739 16.0068 15.3043C16.1398 15.1448 16.2209 14.5446 16.328 14.9613C16.4428 15.4077 16.4478 15.8339 16.4478 16.2896C16.4478 16.9918 16.6438 17.6618 16.6438 18.3474C16.6438 18.9923 17.2973 19.6212 17.9176 19.6212C18.7655 19.6212 18.9432 19.3339 19.2895 18.6414" stroke="black" stroke-width="0.731648" stroke-linecap="round"/>
<path d="M8.7066 11.5861C7.04921 11.5861 8.09871 14.0948 9.17477 13.3499C9.75955 12.945 9.85027 11.684 9.00056 11.684C8.50044 11.684 8.33272 11.953 8.23843 12.4244C8.18425 12.6953 8.41117 12.864 8.63038 12.9579C9.07904 13.1502 9.24891 13.171 9.43062 12.6258C9.59542 12.1314 8.90727 11.7151 8.80459 12.0488C8.77452 12.1465 8.60412 12.7204 8.76648 12.7565C9.03079 12.8152 9.28364 12.5162 9.28364 12.272C9.28364 11.4615 8.1701 12.2834 8.66849 12.8926C8.87752 13.1481 9.75067 11.7978 8.6576 12.1304C7.89535 12.3624 8.35739 13.1809 8.7447 12.7075C9.11556 12.2542 8.12955 12.0661 8.12955 12.6748C8.12955 13.3708 8.83555 13.2306 8.70115 12.6258C8.65939 12.4379 8.60861 12.8289 8.60861 12.8599C8.60861 13.0729 8.75961 13.1089 8.90258 13.2519" stroke="#FFBB38" stroke-width="0.731648" stroke-linecap="round"/>
<path d="M11.9401 11.7822C11.4087 11.8486 10.9349 12.7165 11.2052 13.203C11.6508 14.005 12.626 13.3508 12.626 12.6205C12.626 11.8586 11.8722 11.2743 11.3522 12.0544C11.1186 12.4047 11.0172 12.9356 11.3522 13.252C11.769 13.6456 12.4301 12.8436 12.4301 12.4463C12.4301 11.4458 10.9764 12.2307 11.5917 13.1976C11.85 13.6035 12.2586 13.019 12.3266 12.7131C12.3926 12.4163 12.1404 11.8867 11.7986 12.2286C11.5112 12.516 11.599 13.574 12.1143 13.0778C12.3033 12.8958 12.4643 12.1992 12.0381 12.1741C11.7794 12.1589 11.8421 12.3521 11.8421 12.5606C11.8421 12.8407 11.9898 12.7712 12.1143 12.958C12.2531 13.1661 12.5162 12.327 12.2341 12.4681" stroke="#FF5959" stroke-width="0.731648" stroke-linecap="round"/>
<path d="M15.8597 12.37C15.8097 11.97 15.3877 12.5846 15.348 12.664C15.2247 12.9106 15.2247 13.2993 15.348 13.5459C15.717 14.284 16.9954 13.4886 16.2625 12.6531C15.8846 12.2222 15.4846 11.9155 15.1955 12.566C15.0915 12.8001 15.2464 13.3439 15.5875 13.2301C16.0101 13.0893 16.4273 12.2711 16.0774 11.9563C15.5936 11.5208 15.1243 12.1696 15.1792 12.664C15.2581 13.3743 15.9768 13.3947 16.2462 12.811C16.3786 12.5242 16.3595 12.0761 15.9577 12.0761C15.5658 12.0761 15.432 12.8039 15.6202 13.0995C15.9014 13.5414 16.4476 13.3614 16.4476 12.86C16.4476 11.371 15.2354 13.196 16.0176 13.4969C17.4396 14.0438 16.5759 11.5931 16.1537 12.86" stroke="#8CD6FF" stroke-width="0.731648" stroke-linecap="round"/>
</g>
<defs>
<clipPath id="clip0_2201_2">
<rect width="43.7924" height="31.6571" fill="white"/>
</clipPath>
</defs>
</svg>
