<svg width="50" height="50" viewBox="0 0 58 58" fill="none" xmlns="http://www.w3.org/2000/svg">
<path d="M50.4466 9.98676C50.4466 17.3532 44.0188 26.1731 39.3888 31.5539C34.2818 37.4891 25.1295 40.6289 17.5476 40.4183C9.6133 40.1979 1.92053 33.3703 1.92053 25.2482C1.92053 20.9393 3.99926 15.0463 8.95726 14.1448C13.6524 13.2912 22.3976 16.0017 26.1835 18.6227C29.0471 20.6052 32.2168 21.6515 34.8652 23.9688C37.4586 26.2381 39.7257 28.6421 42.2218 30.9599C46.0078 34.4755 48.4482 39.301 51.6803 43.2513C53.7046 45.7255 54.6332 49.8427 55.3814 45.3532" stroke="#DCDCDC" stroke-width="3.25843" stroke-linecap="round"/>
<path d="M13.3907 21.8526C13.376 21.97 12.5217 22.6009 12.3713 22.7701C12.0584 23.122 12.3154 24.4432 12.4732 24.7885C13.0977 26.1545 14.422 25.9084 15.0013 24.605C15.4472 23.6018 14.9603 22.4478 14.2674 21.8934C13.3197 21.1353 13.1693 23.5105 13.7984 24.0138C14.3494 24.4546 14.5093 23.2547 14.4916 22.9536C14.4799 22.7542 14.229 22.5532 14.0329 22.5968C13.5192 22.7109 13.5742 23.3353 13.5742 23.7283C13.5742 24.2319 13.465 24.8424 13.8596 25.237C14.394 25.7714 14.6864 25.2917 14.6751 24.7069C14.6553 23.6749 13.3476 22.8746 13.3907 24.34C13.4207 25.3598 14.6209 23.5678 13.0645 23.6876C12.5319 23.7285 12.9745 24.8947 13.1154 25.1453C13.4617 25.7609 14.1451 24.353 13.146 23.9934C12.8976 23.9039 13.4763 25.0149 13.564 24.4011C13.5806 24.2851 13.4003 23.1144 13.248 23.4021C12.4565 24.8971 14.5516 24.1763 13.5742 23.6876" stroke="#FFBB38" stroke-width="0.550473" stroke-linecap="round"/>
<path d="M19.8129 22.4031C18.735 22.4031 18.5284 23.8029 18.5284 24.6968C18.5284 25.2041 19.6392 27.3812 20.1798 26.1647C20.4964 25.4524 21.1089 24.6259 20.6386 23.7793C20.5496 23.6191 20.3829 22.815 20.2614 22.7803C19.722 22.6262 19.446 22.4498 19.1706 23.0556C18.9486 23.544 19.2248 24.5268 19.4867 24.972C19.762 25.44 19.8238 23.8733 19.8129 23.6876C19.7805 23.1377 19.2624 23.3022 19.2624 23.8711C19.2624 24.2403 19.1317 25.9914 19.8129 25.9914C20.5611 25.9914 19.8129 22.5919 19.8129 24.7885C19.8129 25.484 20.1798 25.7539 20.1798 24.8293C20.1798 24.172 20.3857 23.6876 19.6294 23.6876" stroke="#FF5959" stroke-width="0.550473" stroke-linecap="round"/>
<path d="M25.5011 22.2196C24.0203 22.2196 24.7536 25.2442 25.9598 25.5123C28.1125 25.9907 27.7764 23.183 26.7855 21.9444C26.5625 21.6657 25.5785 21.4348 25.3176 21.7609C24.7696 22.4459 24.7671 22.8105 24.7671 23.7283C24.7671 24.3344 26.1162 25.627 26.2249 24.7579C26.2573 24.498 26.3964 23.2875 26.1331 23.1371C25.6892 22.8834 25.4578 23.0882 25.3584 23.5856C25.0618 25.0683 26.9653 25.4232 26.5613 23.5041C26.4452 22.9529 26.0305 22.3348 26.0516 23.2594C26.057 23.4979 26.4855 25.0796 26.8671 24.2075C27.0068 23.8881 27.1934 22.5243 26.6938 22.4133C25.9731 22.2532 26.1263 23.7074 26.4593 24.0138C27.1241 24.6254 26.8378 22.5738 26.4593 22.9944C26.1277 23.3629 26.841 24.8348 26.969 24.4827C27.0762 24.1878 27.3874 23.2606 26.8773 23.1473C26.4262 23.047 26.5373 24.2786 26.704 24.4929C27.0975 24.9989 26.7161 22.1527 25.8681 22.9536C25.4062 23.3898 25.4743 23.9583 25.8681 24.4215C26.4427 25.0976 26.1399 23.8548 25.9598 23.5347C25.7741 23.2046 25.2587 23.1678 25.5928 23.6876C25.7695 23.9624 26.1897 24.5122 26.4185 24.0545" stroke="#8CD6FF" stroke-width="0.550473" stroke-linecap="round"/>
<path d="M9.35388 31.3942C9.61991 31.3647 9.76648 31.1596 9.95532 30.9865C10.9554 30.0697 11.9142 29.1249 12.8402 28.1321C13.147 27.8032 13.6239 26.7006 13.7475 27.1331C13.926 27.7581 13.7577 28.691 13.7577 29.3248C13.7577 31.0748 13.7577 32.8248 13.7577 34.5747C13.7577 34.9588 13.8265 35.0309 14.0839 35.2883C15.7633 36.9678 17.036 34.1909 17.4377 32.8519C17.7134 31.9329 18.5844 30.7509 19.0789 29.8855C19.2524 29.5819 19.2719 28.8544 19.5376 28.6418C19.7438 28.4769 19.6294 29.5908 19.6294 29.8447C19.6294 31.2248 19.8196 32.748 20.1901 34.0446C20.2929 34.4047 20.4191 35.2013 20.6896 35.4718C21.5082 36.2904 22.5078 34.7667 22.8405 34.2383C23.8083 32.7012 24.6833 31.1996 25.4603 29.5593C25.7371 28.9751 25.8681 27.0167 25.8681 27.6632C25.8681 28.7139 26.0769 29.7598 26.1943 30.803C26.2922 31.6733 26.2017 32.9205 26.6836 33.6777C26.9744 34.1346 26.9542 35.2302 27.6214 35.4208C30.0124 36.104 29.2199 31.9447 31.1893 31.9447" stroke="#DCDCDC" stroke-width="1.42405" stroke-linecap="round"/>
</svg>
